<?xml version="1.0" encoding="UTF-8"?>
<svg version="1.1" xmlns="http://www.w3.org/2000/svg" width="64" height="64">
<path d="M0 0 C-0.33 1.32 -0.66 2.64 -1 4 C-1.56847656 3.96519531 -2.13695313 3.93039063 -2.72265625 3.89453125 C-9.63460707 3.6522091 -14.4359529 4.77782584 -19.8125 9.4375 C-21.69189819 11.63908074 -22.78988317 13.42097273 -24 16 C-18.10070396 15.83605077 -18.10070396 15.83605077 -12.9375 13.4375 C-10.36986853 11.53248311 -8.10660949 11.51964476 -4.96875 11.6484375 C-1.75862655 12.22167383 -0.13605876 13.60502502 2 16 C2.33 17.65 2.66 19.3 3 21 C-7.56 21 -18.12 21 -29 21 C-29 13.17823069 -27.74683401 9.97787203 -22.54296875 4.453125 C-16.89054792 -0.61764831 -7.21649674 -3.60824837 0 0 Z " fill="#DBBF4C" transform="translate(32,17)"/>
<path d="M0 0 C1.32 0 2.64 0 4 0 C4.13535156 0.58007812 4.27070312 1.16015625 4.41015625 1.7578125 C6.1147282 7.94326522 8.36893425 11.7479504 14 15 C19.67459207 17.42309224 24.27542564 17.30186166 29.98828125 15.05859375 C34.09743551 12.89630092 36.47251504 9.79122744 39 6 C40.32 6 41.64 6 43 6 C42.57943375 10.76641754 40.4227472 13.81360619 37 17 C31.1044864 21.16774563 26.16270202 22.46968538 19 22 C12.03477638 20.3751794 7.38924949 17.85382577 2.75 12.3125 C0.57040569 8.18683934 0.20470298 4.60581699 0 0 Z " fill="#D4B84A" transform="translate(3,40)"/>
<path d="M0 0 C2.60585556 3.90878334 2.22321871 7.46121966 2 12 C0.1900082 13.8099918 -2.74463275 13.21588943 -5.1875 13.3125 C-10.68873086 13.59195227 -10.68873086 13.59195227 -15.4375 16.0625 C-18.58077054 18.43911919 -20.14440059 18.50290427 -24 18 C-27.05492281 17.0398814 -27.88838511 16.15944985 -29.75 13.5 C-31 11 -31 11 -31 9 C-21.43 9 -11.86 9 -2 9 C-2.33 6.36 -2.66 3.72 -3 1 C-2.01 0.67 -1.02 0.34 0 0 Z " fill="#ECCD52" transform="translate(46,31)"/>
<path d="M0 0 C9.28834116 2.38162594 16.02748983 7.94616386 21 16 C23.05772496 19.65365025 23.05772496 19.65365025 22.625 22.25 C22.315625 23.11625 22.315625 23.11625 22 24 C20.1640625 23.7890625 20.1640625 23.7890625 18 23 C16.6484375 20.9609375 16.6484375 20.9609375 15.375 18.375 C11.69463439 11.81434825 6.15676432 7.38558811 -1 5 C-0.67 3.35 -0.34 1.7 0 0 Z " fill="#2F9BD9" transform="translate(38,3)"/>
<path d="M0 0 C8.48571493 3.5513656 14.84749662 7.7591222 18.4375 16.5 C18.623125 17.325 18.80875 18.15 19 19 C17.35 19.66 15.7 20.32 14 21 C13.2575 19.205625 13.2575 19.205625 12.5 17.375 C9.42473029 11.18052816 4.09606805 7.91196108 -2 5 C-1.34 3.35 -0.68 1.7 0 0 Z " fill="#2E98D5" transform="translate(35,9)"/>
<path d="M0 0 C5.74211062 2.02662728 8.51266095 3.97412901 12 9 C12.8125 11.375 12.8125 11.375 13 13 C11.35 13.33 9.7 13.66 8 14 C7.443125 13.071875 6.88625 12.14375 6.3125 11.1875 C4.04212145 8.0580593 2.40491897 6.70245949 -1 5 C-0.67 3.35 -0.34 1.7 0 0 Z " fill="#2E97D4" transform="translate(33,17)"/>
</svg>
